<svg width="30" height="30" viewBox="0 0 24 24" fill="none" xmlns="http://www.w3.org/2000/svg">
<path fill-rule="evenodd" clip-rule="evenodd" d="M11 16.9V22.9552C5.3935 22.4499 1 17.7381 1 12C1 6.26198 5.3935 1.55009 11 1.04486V7.10004C8.71776 7.56331 7 9.58106 7 12C7 14.419 8.71776 16.4367 11 16.9ZM13 7.10004V1.04486C18.2771 1.52041 22.4796 5.72287 22.9552 11H16.9C16.5023 9.04088 14.9591 7.49772 13 7.10004ZM16.9 13C16.5023 14.9591 14.9591 16.5023 13 16.9V22.9552C18.2771 22.4796 22.4796 18.2771 22.9552 13H16.9Z" fill="white"/>
</svg>
