<svg width="34" height="30" viewBox="0 0 34 30" fill="none" xmlns="http://www.w3.org/2000/svg">
<path fill-rule="evenodd" clip-rule="evenodd" d="M18.9294 1.37348C18.1079 1.06535 17.382 1.53241 16.8294 2.01372C16.2513 2.51722 15.5615 3.30744 14.7133 4.27911L14.6716 4.32685L7.07495 13.0284L7.0334 13.076C6.32046 13.8926 5.73029 14.5686 5.36659 15.1307C5.00483 15.6899 4.70312 16.3831 5.03204 17.1068C5.36096 17.8306 6.08158 18.0592 6.74071 18.1544C7.40336 18.2501 8.3007 18.2501 9.38473 18.2501H9.38474H9.44789H12.889C12.988 18.2501 13.0684 18.2501 13.1378 18.2512C13.1389 18.3207 13.139 18.401 13.139 18.5001V23.6017V23.665C13.1389 24.9548 13.1389 26.0038 13.2433 26.7633C13.343 27.4893 13.5826 28.3185 14.4041 28.6266C15.2256 28.9348 15.9515 28.4677 16.5041 27.9864C17.0822 27.4829 17.772 26.6927 18.6203 25.721L18.6619 25.6733L26.2585 16.9717L26.3001 16.924C27.0131 16.1075 27.6032 15.4315 27.9669 14.8694C28.3287 14.3103 28.6304 13.6171 28.3015 12.8933C27.9725 12.1695 27.2519 11.9409 26.5928 11.8457C25.9301 11.75 25.0328 11.75 23.9488 11.7501L23.8856 11.7501H20.4445C20.3454 11.7501 20.2651 11.75 20.1957 11.7489C20.1946 11.6795 20.1945 11.5991 20.1945 11.5001V6.39847V6.3351C20.1946 5.04527 20.1946 3.9963 20.0902 3.23683C19.9905 2.51082 19.7508 1.68161 18.9294 1.37348Z" fill="white"/>
</svg>
